<svg version="1.1" id="Layer_1" xmlns="http://www.w3.org/2000/svg" xmlns:xlink="http://www.w3.org/1999/xlink" x="0px" y="0px"
	 width="100%" viewBox="0 0 150 150" enable-background="new 0 0 150 150" xml:space="preserve">
<path fill="#FCFDFD" opacity="1.000000" stroke="none" 
	d="
M145.000000,151.000000 
	C99.312439,151.000000 53.624878,151.000000 7.466493,150.531342 
	C6.997114,100.375122 6.998557,50.687561 7.000000,1.000000 
	C52.687561,1.000000 98.375122,1.000000 144.533478,1.468653 
	C145.002869,51.624870 145.001434,101.312439 145.000000,151.000000 
	C74.149879,145.243210 74.561531,145.404678 74.561531,145.404678 
	C74.561531,145.404678 74.972641,145.241791 75.829216,145.310501 
	C76.596588,144.028488 77.807465,142.818878 78.031219,141.448135 
	C78.400986,139.182938 77.393257,136.454010 78.307396,134.572067 
	C79.706345,131.692062 81.797623,128.021988 84.415550,127.149590 
	C87.585678,126.093178 92.056435,124.491905 95.125420,128.927734 
	C98.744133,134.158157 105.010818,135.027466 109.330246,131.282791 
	C113.650719,127.537201 113.867737,121.191483 109.813393,117.155983 
	C105.373276,112.736511 99.599808,113.377197 95.114128,118.510384 
	C93.952705,119.839462 92.136047,121.138252 90.467903,121.374527 
	C86.423592,121.947342 82.289551,121.886681 78.016029,122.089638 
	C79.490746,115.889694 75.014771,108.120583 82.959122,102.300514 
	C91.290756,102.273537 99.622398,102.246559 108.202515,102.836502 
	C113.510849,110.513924 121.995621,110.841385 125.590874,103.507599 
	C127.923073,98.750252 126.127670,93.196724 121.476891,90.782249 
	C116.329292,88.109848 111.417961,90.052208 107.096275,96.254662 
	C103.950249,96.255096 100.801079,96.165451 97.658882,96.275398 
	C91.779770,96.481094 85.904701,96.802505 79.383102,97.213104 
	C77.558151,99.080772 75.733192,100.948441 73.214149,103.220032 
	C72.878860,104.128807 72.250900,105.038315 72.253159,105.946251 
	C72.278114,115.989120 72.400864,126.031746 72.334221,136.866776 
	C72.437080,138.968262 72.539932,141.069748 72.549057,143.586670 
	C72.646751,143.870987 72.830917,144.078537 73.333069,144.718124 
	C73.507744,144.783005 73.682426,144.847885 74.149879,145.243210 
M39.280876,81.631302 
	C39.304527,79.140564 39.008728,76.590576 39.456051,74.178406 
	C39.794918,72.351120 40.680576,70.253639 42.018875,69.050659 
	C46.640537,64.896301 47.368088,58.791210 43.362293,54.532295 
	C39.671791,50.608593 33.073948,50.605213 29.510603,54.605312 
	C25.842747,58.722729 26.634384,65.212807 30.932674,68.892982 
	C32.385296,70.136711 33.183289,72.547173 33.559555,74.559227 
	C34.266342,78.338737 34.448303,82.216377 35.109703,86.679405 
	C43.170238,94.797325 51.230770,102.915245 59.254864,111.963989 
	C59.254864,117.658287 59.254864,123.352592 59.254864,130.317245 
	C50.204124,121.233246 42.220406,113.244843 34.267193,105.226181 
	C30.867355,101.798355 26.948519,99.096893 28.050001,92.807259 
	C28.845388,88.265480 23.135735,84.065300 18.677258,84.513313 
	C13.269961,85.056664 8.995425,89.277771 9.050159,94.020088 
	C9.106350,98.888809 13.094183,102.624275 18.115278,103.093399 
	C20.690819,103.334030 23.921162,103.660461 25.598791,105.263435 
	C36.310013,115.498001 46.693207,126.077118 57.112503,136.613892 
	C58.078789,137.591064 58.964005,139.004807 59.149403,140.319809 
	C59.482887,142.685120 59.303959,145.670074 62.551907,145.009888 
	C63.712498,144.774002 64.935493,141.460159 64.957367,139.537872 
	C65.146774,122.887634 64.996445,106.233559 65.177589,89.583130 
	C65.196579,87.837143 66.259918,85.572227 67.597755,84.465981 
	C72.465118,80.441139 73.512718,74.465622 69.688904,70.018639 
	C66.004486,65.733765 59.376423,65.537506 55.509544,69.598778 
	C51.549721,73.757668 52.258053,79.964676 56.954166,84.122757 
	C58.021339,85.067665 59.090298,86.653137 59.143536,87.984352 
	C59.329258,92.628418 59.070107,97.290268 58.386597,101.656822 
	C51.969822,95.262047 45.553043,88.867264 39.280876,81.631302 
M111.340767,31.174959 
	C103.242729,22.052578 93.690559,14.681610 82.154427,10.856414 
	C73.732765,8.063925 64.745316,6.847767 55.921700,5.513361 
	C54.270119,5.263591 50.972469,7.485177 50.588913,9.083353 
	C49.875839,12.054518 52.573257,13.104854 55.403439,13.229260 
	C57.727081,13.331401 60.041386,13.666525 62.357269,13.921613 
	C94.112312,17.419342 119.431877,44.198761 121.033340,76.034630 
	C121.191261,79.173889 121.220322,82.615448 125.452950,82.336670 
	C129.707382,82.056458 129.239426,78.430252 129.102631,75.432442 
	C128.347382,58.881935 122.442551,44.354923 111.340767,31.174959 
M74.365845,35.952274 
	C91.378204,44.269550 101.256523,57.639854 103.108215,76.649315 
	C103.383545,79.475883 103.810570,82.323975 107.353043,82.241051 
	C111.402618,82.146248 111.229126,78.975075 111.114693,76.024872 
	C110.046135,48.477253 84.207642,23.493311 56.712196,23.514181 
	C54.053928,23.516199 51.037971,23.593197 50.871101,27.367596 
	C50.707676,31.064024 53.480675,31.254156 56.244598,31.787029 
	C62.079063,32.911888 67.848183,34.375675 74.365845,35.952274 
M93.232208,77.339874 
	C91.290436,58.466492 76.015045,42.927372 58.386505,41.853504 
	C55.578537,41.682449 52.703655,41.643829 52.189594,45.181309 
	C51.661987,48.811977 54.526596,49.226574 57.238968,49.974083 
	C61.687729,51.200119 66.394676,52.199825 70.322502,54.459835 
	C78.880318,59.383877 83.445267,67.297363 85.307617,76.984550 
	C85.666634,78.852051 87.739014,80.390160 89.020996,82.080215 
	C90.429573,80.789047 91.838150,79.497879 93.232208,77.339874 
z"/>
<path fill="#000000" opacity="1.000000" stroke="none" 
	d="
M6.500528,1.000000 
	C6.998557,50.687561 6.997114,100.375122 6.997836,150.531342 
	C5.006179,151.000000 3.012357,151.000000 1.013902,151.000000 
	C1.009268,101.000000 1.009268,51.000000 1.012891,1.000000 
	C2.678028,1.000000 4.339543,1.000000 6.500528,1.000000 
z"/>
<path fill="#000000" opacity="1.000000" stroke="none" 
	d="
M145.499481,151.000000 
	C145.001434,101.312439 145.002869,51.624870 145.002136,1.468653 
	C146.993820,1.000000 148.987640,1.000000 150.986084,1.000000 
	C150.990723,51.000000 150.990723,101.000000 150.987091,151.000000 
	C149.321960,151.000000 147.660461,151.000000 145.499481,151.000000 
z"/>
<path fill="#0B385A" opacity="1.000000" stroke="none" 
	d="
M58.980038,101.945358 
	C59.070107,97.290268 59.329258,92.628418 59.143536,87.984352 
	C59.090298,86.653137 58.021339,85.067665 56.954166,84.122757 
	C52.258053,79.964676 51.549721,73.757668 55.509544,69.598778 
	C59.376423,65.537506 66.004486,65.733765 69.688904,70.018639 
	C73.512718,74.465622 72.465118,80.441139 67.597755,84.465981 
	C66.259918,85.572227 65.196579,87.837143 65.177589,89.583130 
	C64.996445,106.233559 65.146774,122.887634 64.957367,139.537872 
	C64.935493,141.460159 63.712498,144.774002 62.551907,145.009888 
	C59.303959,145.670074 59.482887,142.685120 59.149403,140.319809 
	C58.964005,139.004807 58.078789,137.591064 57.112503,136.613892 
	C46.693207,126.077118 36.310013,115.498001 25.598791,105.263435 
	C23.921162,103.660461 20.690819,103.334030 18.115278,103.093399 
	C13.094183,102.624275 9.106350,98.888809 9.050159,94.020088 
	C8.995425,89.277771 13.269961,85.056664 18.677258,84.513313 
	C23.135735,84.065300 28.845388,88.265480 28.050001,92.807259 
	C26.948519,99.096893 30.867355,101.798355 34.267193,105.226181 
	C42.220406,113.244843 50.204124,121.233246 59.254864,130.317245 
	C59.254864,123.352592 59.254864,117.658287 59.563702,111.640274 
	C64.321709,111.439171 62.558067,107.947701 62.958843,105.837074 
	C63.546917,102.740028 61.235710,102.300980 58.980038,101.945358 
M20.573074,90.955917 
	C18.839668,91.681999 16.973534,92.223282 15.486010,93.291702 
	C15.192187,93.502739 16.003700,96.258163 16.946068,96.900787 
	C17.879963,97.537628 20.724112,97.281578 20.823647,96.908470 
	C21.294485,95.143547 21.112228,93.204384 20.573074,90.955917 
M58.924629,76.327164 
	C60.221111,77.497253 61.368187,79.101280 62.887444,79.624382 
	C63.497219,79.834335 65.482056,77.807472 65.797318,76.539246 
	C66.033562,75.588890 64.363617,73.140770 63.950554,73.230865 
	C62.197926,73.613152 60.597645,74.693878 58.924629,76.327164 
z"/>
<path fill="#09A9C8" opacity="1.000000" stroke="none" 
	d="
M111.580536,31.436335 
	C122.442551,44.354923 128.347382,58.881935 129.102631,75.432442 
	C129.239426,78.430252 129.707382,82.056458 125.452950,82.336670 
	C121.220322,82.615448 121.191261,79.173889 121.033340,76.034630 
	C119.431877,44.198761 94.112312,17.419342 62.357269,13.921613 
	C60.041386,13.666525 57.727081,13.331401 55.403439,13.229260 
	C52.573257,13.104854 49.875839,12.054518 50.588913,9.083353 
	C50.972469,7.485177 54.270119,5.263591 55.921700,5.513361 
	C64.745316,6.847767 73.732765,8.063925 82.154427,10.856414 
	C93.690559,14.681610 103.242729,22.052578 111.580536,31.436335 
z"/>
<path fill="#0D3A5B" opacity="1.000000" stroke="none" 
	d="
M72.642792,143.171234 
	C72.539932,141.069748 72.437080,138.968262 72.747368,136.292770 
	C73.400681,134.137314 73.836357,132.557404 73.848869,130.974152 
	C73.923065,121.588570 73.899155,112.202202 73.908234,102.816101 
	C75.733192,100.948441 77.558151,99.080772 80.007027,97.429115 
	C88.935822,97.760834 97.240829,97.930809 105.545326,97.908134 
	C106.374054,97.905876 107.199570,96.731850 108.026581,96.101654 
	C111.417961,90.052208 116.329292,88.109848 121.476891,90.782249 
	C126.127670,93.196724 127.923073,98.750252 125.590874,103.507599 
	C121.995621,110.841385 113.510849,110.513924 107.835953,102.181641 
	C99.586128,101.375221 91.703072,101.191101 83.819153,101.138573 
	C83.236015,101.134682 82.646576,102.077515 82.060059,102.580215 
	C75.014771,108.120583 79.490746,115.889694 78.016029,122.089638 
	C82.289551,121.886681 86.423592,121.947342 90.467903,121.374527 
	C92.136047,121.138252 93.952705,119.839462 95.114128,118.510384 
	C99.599808,113.377197 105.373276,112.736511 109.813393,117.155983 
	C113.867737,121.191483 113.650719,127.537201 109.330246,131.282791 
	C105.010818,135.027466 98.744133,134.158157 95.125420,128.927734 
	C92.056435,124.491905 87.585678,126.093178 84.415550,127.149590 
	C81.797623,128.021988 79.706345,131.692062 78.307396,134.572067 
	C77.393257,136.454010 78.400986,139.182938 78.031219,141.448135 
	C77.807465,142.818878 76.596588,144.028488 75.276443,145.067444 
	C74.406883,144.580185 74.118034,144.609650 73.857101,144.912781 
	C73.682426,144.847885 73.507744,144.783005 73.330078,144.245209 
	C73.264130,143.384506 73.036034,143.184158 72.642792,143.171234 
M117.595245,102.893845 
	C120.330986,101.733154 121.894592,99.783554 119.791824,97.172264 
	C119.011917,96.203735 116.334450,95.786034 115.096626,96.358612 
	C112.151627,97.720901 113.191360,101.225044 117.595245,102.893845 
M101.638893,127.105949 
	C105.193565,127.689316 107.344528,126.332527 106.298218,122.654831 
	C105.997452,121.597641 102.932365,120.261330 101.799248,120.714531 
	C98.879707,121.882217 98.970825,124.332191 101.638893,127.105949 
z"/>
<path fill="#09A8C7" opacity="1.000000" stroke="none" 
	d="
M74.004974,35.826344 
	C67.848183,34.375675 62.079063,32.911888 56.244598,31.787029 
	C53.480675,31.254156 50.707676,31.064024 50.871101,27.367596 
	C51.037971,23.593197 54.053928,23.516199 56.712196,23.514181 
	C84.207642,23.493311 110.046135,48.477253 111.114693,76.024872 
	C111.229126,78.975075 111.402618,82.146248 107.353043,82.241051 
	C103.810570,82.323975 103.383545,79.475883 103.108215,76.649315 
	C101.256523,57.639854 91.378204,44.269550 74.004974,35.826344 
z"/>
<path fill="#08A7C7" opacity="1.000000" stroke="none" 
	d="
M93.239464,77.773285 
	C91.838150,79.497879 90.429573,80.789047 89.020996,82.080215 
	C87.739014,80.390160 85.666634,78.852051 85.307617,76.984550 
	C83.445267,67.297363 78.880318,59.383877 70.322502,54.459835 
	C66.394676,52.199825 61.687729,51.200119 57.238968,49.974083 
	C54.526596,49.226574 51.661987,48.811977 52.189594,45.181309 
	C52.703655,41.643829 55.578537,41.682449 58.386505,41.853504 
	C76.015045,42.927372 91.290436,58.466492 93.239464,77.773285 
z"/>
<path fill="#09395B" opacity="1.000000" stroke="none" 
	d="
M34.848511,86.053215 
	C34.448303,82.216377 34.266342,78.338737 33.559555,74.559227 
	C33.183289,72.547173 32.385296,70.136711 30.932674,68.892982 
	C26.634384,65.212807 25.842747,58.722729 29.510603,54.605312 
	C33.073948,50.605213 39.671791,50.608593 43.362293,54.532295 
	C47.368088,58.791210 46.640537,64.896301 42.018875,69.050659 
	C40.680576,70.253639 39.794918,72.351120 39.456051,74.178406 
	C39.008728,76.590576 39.304527,79.140564 39.153656,82.455017 
	C37.633793,84.203568 36.241154,85.128395 34.848511,86.053215 
M39.636959,62.770229 
	C38.895836,61.060982 38.381065,59.166439 37.245899,57.779762 
	C36.979958,57.454891 33.374695,58.985054 33.423439,59.429485 
	C33.666721,61.647526 34.615864,63.788151 35.436516,66.326721 
	C37.363609,64.784286 38.264126,64.063522 39.636959,62.770229 
z"/>
<path fill="#023153" opacity="1.000000" stroke="none" 
	d="
M34.979111,86.366310 
	C36.241154,85.128395 37.633793,84.203568 39.081352,82.875610 
	C45.553043,88.867264 51.969822,95.262047 58.683319,101.801086 
	C61.235710,102.300980 63.546917,102.740028 62.958843,105.837074 
	C62.558067,107.947701 64.321709,111.439171 59.581921,111.174866 
	C51.230770,102.915245 43.170238,94.797325 34.979111,86.366310 
z"/>
<path fill="#36516D" opacity="1.000000" stroke="none" 
	d="
M73.561188,103.018066 
	C73.899155,112.202202 73.923065,121.588570 73.848869,130.974152 
	C73.836357,132.557404 73.400681,134.137314 72.828835,135.896606 
	C72.400864,126.031746 72.278114,115.989120 72.253159,105.946251 
	C72.250900,105.038315 72.878860,104.128807 73.561188,103.018066 
z"/>
<path fill="#002449" opacity="1.000000" stroke="none" 
	d="
M107.561432,96.178162 
	C107.199570,96.731850 106.374054,97.905876 105.545326,97.908134 
	C97.240829,97.930809 88.935822,97.760834 80.329453,97.360458 
	C85.904701,96.802505 91.779770,96.481094 97.658882,96.275398 
	C100.801079,96.165451 103.950249,96.255096 107.561432,96.178162 
z"/>
<path fill="#002348" opacity="1.000000" stroke="none" 
	d="
M82.509590,102.440369 
	C82.646576,102.077515 83.236015,101.134682 83.819153,101.138573 
	C91.703072,101.191101 99.586128,101.375221 107.711716,101.873184 
	C99.622398,102.246559 91.290756,102.273537 82.509590,102.440369 
z"/>
<path fill="#36516D" opacity="1.000000" stroke="none" 
	d="
M72.595917,143.378952 
	C73.036034,143.184158 73.264130,143.384506 73.214317,143.990784 
	C72.830917,144.078537 72.646751,143.870987 72.595917,143.378952 
z"/>
<path fill="#36516D" opacity="1.000000" stroke="none" 
	d="
M74.003494,145.078003 
	C74.118034,144.609650 74.406883,144.580185 74.848152,145.033081 
	C74.972641,145.241791 74.561531,145.404678 74.561531,145.404678 
	C74.561531,145.404678 74.149879,145.243210 74.003494,145.078003 
z"/>
<path fill="#EDEFF1" opacity="1.000000" stroke="none" 
	d="
M20.867905,91.141617 
	C21.112228,93.204384 21.294485,95.143547 20.823647,96.908470 
	C20.724112,97.281578 17.879963,97.537628 16.946068,96.900787 
	C16.003700,96.258163 15.192187,93.502739 15.486010,93.291702 
	C16.973534,92.223282 18.839668,91.681999 20.867905,91.141617 
z"/>
<path fill="#F1F2F4" opacity="1.000000" stroke="none" 
	d="
M58.933167,75.923309 
	C60.597645,74.693878 62.197926,73.613152 63.950554,73.230865 
	C64.363617,73.140770 66.033562,75.588890 65.797318,76.539246 
	C65.482056,77.807472 63.497219,79.834335 62.887444,79.624382 
	C61.368187,79.101280 60.221111,77.497253 58.933167,75.923309 
z"/>
<path fill="#E8EBEE" opacity="1.000000" stroke="none" 
	d="
M117.306435,103.087433 
	C113.191360,101.225044 112.151627,97.720901 115.096626,96.358612 
	C116.334450,95.786034 119.011917,96.203735 119.791824,97.172264 
	C121.894592,99.783554 120.330986,101.733154 117.306435,103.087433 
z"/>
<path fill="#EDEEF1" opacity="1.000000" stroke="none" 
	d="
M101.270584,126.891380 
	C98.970825,124.332191 98.879707,121.882217 101.799248,120.714531 
	C102.932365,120.261330 105.997452,121.597641 106.298218,122.654831 
	C107.344528,126.332527 105.193565,127.689316 101.270584,126.891380 
z"/>
<path fill="#EAECEF" opacity="1.000000" stroke="none" 
	d="
M39.400803,63.056496 
	C38.264126,64.063522 37.363609,64.784286 35.436516,66.326721 
	C34.615864,63.788151 33.666721,61.647526 33.423439,59.429485 
	C33.374695,58.985054 36.979958,57.454891 37.245899,57.779762 
	C38.381065,59.166439 38.895836,61.060982 39.400803,63.056496 
z"/>
</svg>